<svg width="23" height="27" viewBox="0 0 23 27" fill="none" xmlns="http://www.w3.org/2000/svg">
<rect x="0.5" y="5.5" width="22" height="21" fill="white" stroke="black"/>
<mask id="path-2-outside-1_25_93" maskUnits="userSpaceOnUse" x="3" y="8" width="17" height="15" fill="black">
<rect fill="white" x="3" y="8" width="17" height="15"/>
<path d="M9.19265 9.45455L11.4959 13.8406L13.8564 9.45455H17.4256L13.791 15.7273L17.5236 22H13.9707L11.4959 17.663L9.06197 22H5.46822L9.19265 15.7273L5.5989 9.45455H9.19265Z"/>
</mask>
<path d="M9.19265 9.45455L11.4959 13.8406L13.8564 9.45455H17.4256L13.791 15.7273L17.5236 22H13.9707L11.4959 17.663L9.06197 22H5.46822L9.19265 15.7273L5.5989 9.45455H9.19265Z" fill="black"/>
<path d="M9.19265 9.45455L10.078 8.98961L9.79701 8.45455H9.19265V9.45455ZM11.4959 13.8406L10.6106 14.3055L11.4851 15.9708L12.3765 14.3145L11.4959 13.8406ZM13.8564 9.45455V8.45455H13.2589L12.9758 8.98064L13.8564 9.45455ZM17.4256 9.45455L18.2908 9.95589L19.1608 8.45455H17.4256V9.45455ZM13.791 15.7273L12.9258 15.2259L12.6314 15.734L12.9317 16.2386L13.791 15.7273ZM17.5236 22V23H19.2823L18.383 21.4886L17.5236 22ZM13.9707 22L13.1022 22.4956L13.39 23H13.9707V22ZM11.4959 17.663L12.3645 17.1674L11.4887 15.6326L10.6239 17.1736L11.4959 17.663ZM9.06197 22V23H9.64748L9.93402 22.4894L9.06197 22ZM5.46822 22L4.60836 21.4895L3.71148 23H5.46822V22ZM9.19265 15.7273L10.0525 16.2378L10.3503 15.7363L10.0603 15.2302L9.19265 15.7273ZM5.5989 9.45455V8.45455H3.87349L4.73121 9.95166L5.5989 9.45455ZM8.3073 9.91948L10.6106 14.3055L12.3813 13.3756L10.078 8.98961L8.3073 9.91948ZM12.3765 14.3145L14.7369 9.92845L12.9758 8.98064L10.6153 13.3666L12.3765 14.3145ZM13.8564 10.4545H17.4256V8.45455H13.8564V10.4545ZM16.5604 8.9532L12.9258 15.2259L14.6563 16.2286L18.2908 9.95589L16.5604 8.9532ZM12.9317 16.2386L16.6643 22.5114L18.383 21.4886L14.6504 15.2159L12.9317 16.2386ZM17.5236 21H13.9707V23H17.5236V21ZM14.8392 21.5044L12.3645 17.1674L10.6274 18.1586L13.1022 22.4956L14.8392 21.5044ZM10.6239 17.1736L8.18991 21.5106L9.93402 22.4894L12.368 18.1524L10.6239 17.1736ZM9.06197 21H5.46822V23H9.06197V21ZM6.32807 22.5105L10.0525 16.2378L8.33279 15.2167L4.60836 21.4895L6.32807 22.5105ZM10.0603 15.2302L6.46659 8.95743L4.73121 9.95166L8.32496 16.2244L10.0603 15.2302ZM5.5989 10.4545H9.19265V8.45455H5.5989V10.4545Z" fill="black" mask="url(#path-2-outside-1_25_93)"/>
</svg>
