<svg width="23" height="22" viewBox="0 0 23 22" fill="none" xmlns="http://www.w3.org/2000/svg">
<rect x="0.5" y="0.5" width="22" height="21" fill="white" stroke="black"/>
<path d="M4.84304 15H2.53622L6.05114 4.81818H8.82528L12.3352 15H10.0284L7.47798 7.14489H7.39844L4.84304 15ZM4.69886 10.9979H10.1477V12.6783H4.69886V10.9979ZM15.6985 15.1442C15.2113 15.1442 14.7771 15.0597 14.396 14.8906C14.0148 14.7183 13.7132 14.4647 13.4911 14.13C13.2724 13.7919 13.163 13.371 13.163 12.8672C13.163 12.4429 13.2409 12.0866 13.3967 11.7983C13.5524 11.5099 13.7646 11.2779 14.033 11.1023C14.3015 10.9266 14.6064 10.794 14.9478 10.7045C15.2925 10.6151 15.6538 10.5521 16.0316 10.5156C16.4757 10.4692 16.8337 10.4261 17.1055 10.3864C17.3772 10.3433 17.5745 10.2803 17.6971 10.1974C17.8197 10.1146 17.881 9.99195 17.881 9.82955V9.79972C17.881 9.48485 17.7816 9.24124 17.5827 9.06889C17.3872 8.89654 17.1088 8.81037 16.7475 8.81037C16.3664 8.81037 16.0631 8.89489 15.8377 9.06392C15.6123 9.22964 15.4632 9.43845 15.3903 9.69034L13.4315 9.53125C13.5309 9.06723 13.7264 8.66619 14.0181 8.32812C14.3098 7.98674 14.686 7.7249 15.1467 7.54261C15.6107 7.35701 16.1476 7.2642 16.7575 7.2642C17.1817 7.2642 17.5877 7.31392 17.9755 7.41335C18.3666 7.51278 18.713 7.6669 19.0146 7.87571C19.3195 8.08452 19.5598 8.35298 19.7354 8.68111C19.9111 9.00592 19.9989 9.39536 19.9989 9.84943V15H17.9904V13.9411H17.9308C17.8081 14.1797 17.6441 14.3902 17.4386 14.5724C17.2331 14.7514 16.9862 14.8923 16.6978 14.995C16.4094 15.0945 16.0763 15.1442 15.6985 15.1442ZM16.305 13.6825C16.6166 13.6825 16.8917 13.6212 17.1303 13.4986C17.369 13.3726 17.5562 13.2036 17.6921 12.9915C17.828 12.7794 17.896 12.5391 17.896 12.2706V11.4602C17.8297 11.5033 17.7385 11.5431 17.6225 11.5795C17.5098 11.6127 17.3822 11.6442 17.2397 11.674C17.0972 11.7005 16.9547 11.7254 16.8121 11.7486C16.6696 11.7685 16.5404 11.7867 16.4244 11.8033C16.1758 11.8397 15.9587 11.8977 15.7731 11.9773C15.5875 12.0568 15.4433 12.1645 15.3406 12.3004C15.2378 12.433 15.1864 12.5987 15.1864 12.7976C15.1864 13.0859 15.2908 13.3063 15.4996 13.4588C15.7118 13.608 15.9802 13.6825 16.305 13.6825Z" fill="black"/>
</svg>
